{"accessors":[{"bufferView":0,"byteOffset":0,"componentType":5126,"count":108,"max":[0.5,0.5,0.5],"min":[-0.5,-0.5,-0.5],"normalized":false,"type":"VEC3"},{"bufferView":1,"byteOffset":0,"componentType":5126,"count":108,"max":[0,0,0.000076,1],"min":[-1,-1,-1,-1],"normalized":false,"type":"VEC4"},{"bufferView":2,"byteOffset":0,"componentType":5126,"count":108,"max":[1,1,1],"min":[-1,-1,-1],"normalized":false,"type":"VEC3"},{"bufferView":3,"byteOffset":0,"componentType":5126,"count":108,"max":[1,1],"min":[0,0],"normalized":false,"type":"VEC2"},{"bufferView":4,"byteOffset":0,"componentType":5125,"count":108,"max":[107],"min":[0],"normalized":false,"type":"SCALAR"}],"asset":{"generator":"Godot Engine v4.2.1.stable.official@b09f793f564a6c95dc76acc654b390e68441bd01","version":"2.0"},"bufferViews":[{"buffer":0,"byteLength":1296,"byteOffset":0},{"buffer":0,"byteLength":1728,"byteOffset":1296},{"buffer":0,"byteLength":1296,"byteOffset":3024},{"buffer":0,"byteLength":864,"byteOffset":4320},{"buffer":0,"byteLength":432,"byteOffset":5184}],"buffers":[{"byteLength":5616,"uri":"box_meshes0.bin"}],"extensionsUsed":["GODOT_single_root"],"materials":[{"extensions":{},"pbrMetallicRoughness":{"baseColorFactor":[0.99999988079071,0.99999988079071,0.99999988079071,1],"metallicFactor":0,"roughnessFactor":1}}],"meshes":[{"extras":{"targetNames":[]},"primitives":[{"attributes":{"NORMAL":2,"POSITION":0,"TANGENT":1,"TEXCOORD_0":3},"indices":4,"material":0,"mode":4}]}],"nodes":[{"children":[1],"extensions":{},"mesh":0,"name":"BoxMeshes2","translation":[0,1.32421004772186,0]},{"children":[2],"extensions":{},"name":"CSGCombiner3D"},{"extensions":{},"name":"CSGBox3D2","translation":[-0.00000000567008,-0.19025599956512,-0.00000000567008]}],"scene":0,"scenes":[{"nodes":[0]}]}